<?xml version="1.0" encoding="UTF-8" standalone="no"?>
<!-- Created with Inkscape (http://www.inkscape.org/) -->

<svg
   xmlns:dc="http://purl.org/dc/elements/1.1/"
   xmlns:cc="http://creativecommons.org/ns#"
   xmlns:rdf="http://www.w3.org/1999/02/22-rdf-syntax-ns#"
   xmlns:svg="http://www.w3.org/2000/svg"
   xmlns="http://www.w3.org/2000/svg"
   xmlns:sodipodi="http://sodipodi.sourceforge.net/DTD/sodipodi-0.dtd"
   xmlns:inkscape="http://www.inkscape.org/namespaces/inkscape"
   width="1052.3622"
   height="744.09448"
   id="svg2"
   version="1.1"
   inkscape:version="0.48.4 r9939"
   sodipodi:docname="promicro-laser-1.svg">
  <defs
     id="defs4" />
  <sodipodi:namedview
     id="base"
     pagecolor="#ffffff"
     bordercolor="#666666"
     borderopacity="1.0"
     inkscape:pageopacity="0.0"
     inkscape:pageshadow="2"
     inkscape:zoom="7.919596"
     inkscape:cx="88.69816"
     inkscape:cy="620.07467"
     inkscape:document-units="mm"
     inkscape:current-layer="layer1"
     showgrid="true"
     units="mm"
     inkscape:showpageshadow="false"
     borderlayer="true"
     inkscape:window-width="1920"
     inkscape:window-height="1058"
     inkscape:window-x="1912"
     inkscape:window-y="-8"
     inkscape:window-maximized="1"
     inkscape:snap-bbox="true"
     inkscape:snap-grids="false"
     inkscape:bbox-nodes="true"
     inkscape:snap-object-midpoints="true"
     inkscape:bbox-paths="true">
    <inkscape:grid
       type="xygrid"
       id="grid2986"
       empspacing="5"
       visible="true"
       enabled="true"
       snapvisiblegridlinesonly="true"
       units="mm"
       spacingx="5mm"
       spacingy="5mm" />
  </sodipodi:namedview>
  <metadata
     id="metadata7">
    <rdf:RDF>
      <cc:Work
         rdf:about="">
        <dc:format>image/svg+xml</dc:format>
        <dc:type
           rdf:resource="http://purl.org/dc/dcmitype/StillImage" />
        <dc:title></dc:title>
      </cc:Work>
    </rdf:RDF>
  </metadata>
  <g
     inkscape:label="Layer 1"
     inkscape:groupmode="layer"
     id="layer1"
     transform="translate(0,-308.2677)">
    <rect
       style="fill:#00ff00;stroke:#000000;stroke-width:0.88582677;stroke-miterlimit:4;stroke-opacity:1;stroke-dasharray:none"
       id="rect3076"
       width="9"
       height="9"
       x="214.94656"
       y="415.81689" />
    <rect
       y="424.81689"
       x="214.94656"
       height="9"
       width="9"
       id="rect3078"
       style="fill:#00ff00;stroke:#000000;stroke-width:0.88582677;stroke-miterlimit:4;stroke-opacity:1;stroke-dasharray:none" />
    <rect
       y="433.81689"
       x="214.94656"
       height="9"
       width="9"
       id="rect3088"
       style="fill:#00ff00;stroke:#000000;stroke-width:0.88582677;stroke-miterlimit:4;stroke-opacity:1;stroke-dasharray:none" />
    <rect
       style="fill:#00ff00;stroke:#000000;stroke-width:0.88582677;stroke-miterlimit:4;stroke-opacity:1;stroke-dasharray:none"
       id="rect3090"
       width="9"
       height="9"
       x="214.94656"
       y="442.81689" />
    <rect
       y="451.81689"
       x="214.94656"
       height="9"
       width="9"
       id="rect3096"
       style="fill:#00ff00;stroke:#000000;stroke-width:0.88582677;stroke-miterlimit:4;stroke-opacity:1;stroke-dasharray:none" />
    <rect
       style="fill:#00ff00;stroke:#000000;stroke-width:0.88582677;stroke-miterlimit:4;stroke-opacity:1;stroke-dasharray:none"
       id="rect3098"
       width="9"
       height="9"
       x="214.94656"
       y="460.81689" />
    <rect
       style="fill:#00ff00;stroke:#000000;stroke-width:0.88582677;stroke-miterlimit:4;stroke-opacity:1;stroke-dasharray:none"
       id="rect3104"
       width="9"
       height="9"
       x="214.94656"
       y="469.81689" />
    <rect
       y="478.81689"
       x="214.94656"
       height="9"
       width="9"
       id="rect3106"
       style="fill:#00ff00;stroke:#000000;stroke-width:0.88582677;stroke-miterlimit:4;stroke-opacity:1;stroke-dasharray:none" />
    <rect
       style="fill:#00ff00;stroke:#000000;stroke-width:0.88582677;stroke-miterlimit:4;stroke-opacity:1;stroke-dasharray:none"
       id="rect3112"
       width="9"
       height="9"
       x="214.94656"
       y="487.81689" />
    <rect
       y="496.81689"
       x="214.94656"
       height="9"
       width="9"
       id="rect3114"
       style="fill:#00ff00;stroke:#000000;stroke-width:0.88582677;stroke-miterlimit:4;stroke-opacity:1;stroke-dasharray:none" />
    <rect
       y="505.81689"
       x="214.94656"
       height="9"
       width="9"
       id="rect3120"
       style="fill:#00ff00;stroke:#000000;stroke-width:0.88582677;stroke-miterlimit:4;stroke-opacity:1;stroke-dasharray:none" />
    <rect
       style="fill:#00ff00;stroke:#000000;stroke-width:0.88582677;stroke-miterlimit:4;stroke-opacity:1;stroke-dasharray:none"
       id="rect3122"
       width="9"
       height="9"
       x="214.94656"
       y="514.81689" />
    <g
       id="g3156"
       transform="translate(0,1.914978)">
      <rect
         transform="matrix(0,1,-1,0,0,0)"
         y="-112.22336"
         x="402.60315"
         height="63"
         width="117"
         id="rect2982"
         style="fill:#ff0000;stroke:#000000;stroke-width:0.88582677;stroke-miterlimit:4;stroke-opacity:1;stroke-dasharray:none" />
      <rect
         y="398.77319"
         x="66.55014"
         height="17.716536"
         width="28.346457"
         id="rect2984"
         style="fill:#ff0000;stroke:#000000;stroke-width:0.88582677;stroke-miterlimit:4;stroke-opacity:1;stroke-dasharray:none" />
      <path
         sodipodi:type="arc"
         style="fill:#ff0000;stroke:#000000;stroke-width:4.99540329;stroke-miterlimit:4;stroke-opacity:1;stroke-dasharray:none"
         id="use3048"
         sodipodi:cx="175"
         sodipodi:cy="114.09448"
         sodipodi:rx="10"
         sodipodi:ry="10"
         d="m 185,114.09448 c 0,5.52285 -4.47715,10 -10,10 -5.52285,0 -10,-4.47715 -10,-10 0,-5.52285 4.47715,-10 10,-10 5.52285,0 10,4.47715 10,10 z"
         transform="matrix(0.17735101,0,0,0.1773058,77.824648,395.2762)" />
      <path
         transform="matrix(0.17735101,0,0,0.1773058,77.824648,404.2762)"
         d="m 185,114.09448 c 0,5.52285 -4.47715,10 -10,10 -5.52285,0 -10,-4.47715 -10,-10 0,-5.52285 4.47715,-10 10,-10 5.52285,0 10,4.47715 10,10 z"
         sodipodi:ry="10"
         sodipodi:rx="10"
         sodipodi:cy="114.09448"
         sodipodi:cx="175"
         id="path3084"
         style="fill:#ff0000;stroke:#000000;stroke-width:4.99540329;stroke-miterlimit:4;stroke-opacity:1;stroke-dasharray:none"
         sodipodi:type="arc" />
      <path
         transform="matrix(0.17735101,0,0,0.1773058,77.824648,413.2762)"
         d="m 185,114.09448 c 0,5.52285 -4.47715,10 -10,10 -5.52285,0 -10,-4.47715 -10,-10 0,-5.52285 4.47715,-10 10,-10 5.52285,0 10,4.47715 10,10 z"
         sodipodi:ry="10"
         sodipodi:rx="10"
         sodipodi:cy="114.09448"
         sodipodi:cx="175"
         id="path3086"
         style="fill:#ff0000;stroke:#000000;stroke-width:4.99540329;stroke-miterlimit:4;stroke-opacity:1;stroke-dasharray:none"
         sodipodi:type="arc" />
      <path
         sodipodi:type="arc"
         style="fill:#ff0000;stroke:#000000;stroke-width:4.99540329;stroke-miterlimit:4;stroke-opacity:1;stroke-dasharray:none"
         id="path3092"
         sodipodi:cx="175"
         sodipodi:cy="114.09448"
         sodipodi:rx="10"
         sodipodi:ry="10"
         d="m 185,114.09448 c 0,5.52285 -4.47715,10 -10,10 -5.52285,0 -10,-4.47715 -10,-10 0,-5.52285 4.47715,-10 10,-10 5.52285,0 10,4.47715 10,10 z"
         transform="matrix(0.17735101,0,0,0.1773058,77.824648,422.2762)" />
      <path
         transform="matrix(0.17735101,0,0,0.1773058,77.824648,431.2762)"
         d="m 185,114.09448 c 0,5.52285 -4.47715,10 -10,10 -5.52285,0 -10,-4.47715 -10,-10 0,-5.52285 4.47715,-10 10,-10 5.52285,0 10,4.47715 10,10 z"
         sodipodi:ry="10"
         sodipodi:rx="10"
         sodipodi:cy="114.09448"
         sodipodi:cx="175"
         id="path3094"
         style="fill:#ff0000;stroke:#000000;stroke-width:4.99540329;stroke-miterlimit:4;stroke-opacity:1;stroke-dasharray:none"
         sodipodi:type="arc" />
      <path
         sodipodi:type="arc"
         style="fill:#ff0000;stroke:#000000;stroke-width:4.99540329;stroke-miterlimit:4;stroke-opacity:1;stroke-dasharray:none"
         id="path3100"
         sodipodi:cx="175"
         sodipodi:cy="114.09448"
         sodipodi:rx="10"
         sodipodi:ry="10"
         d="m 185,114.09448 c 0,5.52285 -4.47715,10 -10,10 -5.52285,0 -10,-4.47715 -10,-10 0,-5.52285 4.47715,-10 10,-10 5.52285,0 10,4.47715 10,10 z"
         transform="matrix(0.17735101,0,0,0.1773058,77.824648,440.2762)" />
      <path
         sodipodi:type="arc"
         style="fill:#ff0000;stroke:#000000;stroke-width:4.99540329;stroke-miterlimit:4;stroke-opacity:1;stroke-dasharray:none"
         id="path3102"
         sodipodi:cx="175"
         sodipodi:cy="114.09448"
         sodipodi:rx="10"
         sodipodi:ry="10"
         d="m 185,114.09448 c 0,5.52285 -4.47715,10 -10,10 -5.52285,0 -10,-4.47715 -10,-10 0,-5.52285 4.47715,-10 10,-10 5.52285,0 10,4.47715 10,10 z"
         transform="matrix(0.17735101,0,0,0.1773058,77.824648,449.2762)" />
      <path
         transform="matrix(0.17735101,0,0,0.1773058,77.824648,458.2762)"
         d="m 185,114.09448 c 0,5.52285 -4.47715,10 -10,10 -5.52285,0 -10,-4.47715 -10,-10 0,-5.52285 4.47715,-10 10,-10 5.52285,0 10,4.47715 10,10 z"
         sodipodi:ry="10"
         sodipodi:rx="10"
         sodipodi:cy="114.09448"
         sodipodi:cx="175"
         id="path3108"
         style="fill:#ff0000;stroke:#000000;stroke-width:4.99540329;stroke-miterlimit:4;stroke-opacity:1;stroke-dasharray:none"
         sodipodi:type="arc" />
      <path
         sodipodi:type="arc"
         style="fill:#ff0000;stroke:#000000;stroke-width:4.99540329;stroke-miterlimit:4;stroke-opacity:1;stroke-dasharray:none"
         id="path3110"
         sodipodi:cx="175"
         sodipodi:cy="114.09448"
         sodipodi:rx="10"
         sodipodi:ry="10"
         d="m 185,114.09448 c 0,5.52285 -4.47715,10 -10,10 -5.52285,0 -10,-4.47715 -10,-10 0,-5.52285 4.47715,-10 10,-10 5.52285,0 10,4.47715 10,10 z"
         transform="matrix(0.17735101,0,0,0.1773058,77.824648,467.2762)" />
      <path
         transform="matrix(0.17735101,0,0,0.1773058,77.824648,476.2762)"
         d="m 185,114.09448 c 0,5.52285 -4.47715,10 -10,10 -5.52285,0 -10,-4.47715 -10,-10 0,-5.52285 4.47715,-10 10,-10 5.52285,0 10,4.47715 10,10 z"
         sodipodi:ry="10"
         sodipodi:rx="10"
         sodipodi:cy="114.09448"
         sodipodi:cx="175"
         id="path3116"
         style="fill:#ff0000;stroke:#000000;stroke-width:4.99540329;stroke-miterlimit:4;stroke-opacity:1;stroke-dasharray:none"
         sodipodi:type="arc" />
      <path
         transform="matrix(0.17735101,0,0,0.1773058,77.824648,485.2762)"
         d="m 185,114.09448 c 0,5.52285 -4.47715,10 -10,10 -5.52285,0 -10,-4.47715 -10,-10 0,-5.52285 4.47715,-10 10,-10 5.52285,0 10,4.47715 10,10 z"
         sodipodi:ry="10"
         sodipodi:rx="10"
         sodipodi:cy="114.09448"
         sodipodi:cx="175"
         id="path3118"
         style="fill:#ff0000;stroke:#000000;stroke-width:4.99540329;stroke-miterlimit:4;stroke-opacity:1;stroke-dasharray:none"
         sodipodi:type="arc" />
      <path
         sodipodi:type="arc"
         style="fill:#ff0000;stroke:#000000;stroke-width:4.99540329;stroke-miterlimit:4;stroke-opacity:1;stroke-dasharray:none"
         id="path3124"
         sodipodi:cx="175"
         sodipodi:cy="114.09448"
         sodipodi:rx="10"
         sodipodi:ry="10"
         d="m 185,114.09448 c 0,5.52285 -4.47715,10 -10,10 -5.52285,0 -10,-4.47715 -10,-10 0,-5.52285 4.47715,-10 10,-10 5.52285,0 10,4.47715 10,10 z"
         transform="matrix(0.17735101,0,0,0.1773058,77.824648,494.2762)" />
      <path
         transform="matrix(0.17735101,0,0,0.1773058,21.711756,396.11034)"
         d="m 185,114.09448 c 0,5.52285 -4.47715,10 -10,10 -5.52285,0 -10,-4.47715 -10,-10 0,-5.52285 4.47715,-10 10,-10 5.52285,0 10,4.47715 10,10 z"
         sodipodi:ry="10"
         sodipodi:rx="10"
         sodipodi:cy="114.09448"
         sodipodi:cx="175"
         id="path3126"
         style="fill:#ff0000;stroke:#000000;stroke-width:4.99540329;stroke-miterlimit:4;stroke-opacity:1;stroke-dasharray:none"
         sodipodi:type="arc" />
      <path
         sodipodi:type="arc"
         style="fill:#ff0000;stroke:#000000;stroke-width:4.99540329;stroke-miterlimit:4;stroke-opacity:1;stroke-dasharray:none"
         id="path3128"
         sodipodi:cx="175"
         sodipodi:cy="114.09448"
         sodipodi:rx="10"
         sodipodi:ry="10"
         d="m 185,114.09448 c 0,5.52285 -4.47715,10 -10,10 -5.52285,0 -10,-4.47715 -10,-10 0,-5.52285 4.47715,-10 10,-10 5.52285,0 10,4.47715 10,10 z"
         transform="matrix(0.17735101,0,0,0.1773058,21.711756,405.11034)" />
      <path
         sodipodi:type="arc"
         style="fill:#ff0000;stroke:#000000;stroke-width:4.99540329;stroke-miterlimit:4;stroke-opacity:1;stroke-dasharray:none"
         id="path3130"
         sodipodi:cx="175"
         sodipodi:cy="114.09448"
         sodipodi:rx="10"
         sodipodi:ry="10"
         d="m 185,114.09448 c 0,5.52285 -4.47715,10 -10,10 -5.52285,0 -10,-4.47715 -10,-10 0,-5.52285 4.47715,-10 10,-10 5.52285,0 10,4.47715 10,10 z"
         transform="matrix(0.17735101,0,0,0.1773058,21.711756,414.11034)" />
      <path
         transform="matrix(0.17735101,0,0,0.1773058,21.711756,423.11034)"
         d="m 185,114.09448 c 0,5.52285 -4.47715,10 -10,10 -5.52285,0 -10,-4.47715 -10,-10 0,-5.52285 4.47715,-10 10,-10 5.52285,0 10,4.47715 10,10 z"
         sodipodi:ry="10"
         sodipodi:rx="10"
         sodipodi:cy="114.09448"
         sodipodi:cx="175"
         id="path3132"
         style="fill:#ff0000;stroke:#000000;stroke-width:4.99540329;stroke-miterlimit:4;stroke-opacity:1;stroke-dasharray:none"
         sodipodi:type="arc" />
      <path
         sodipodi:type="arc"
         style="fill:#ff0000;stroke:#000000;stroke-width:4.99540329;stroke-miterlimit:4;stroke-opacity:1;stroke-dasharray:none"
         id="path3134"
         sodipodi:cx="175"
         sodipodi:cy="114.09448"
         sodipodi:rx="10"
         sodipodi:ry="10"
         d="m 185,114.09448 c 0,5.52285 -4.47715,10 -10,10 -5.52285,0 -10,-4.47715 -10,-10 0,-5.52285 4.47715,-10 10,-10 5.52285,0 10,4.47715 10,10 z"
         transform="matrix(0.17735101,0,0,0.1773058,21.711756,432.11034)" />
      <path
         transform="matrix(0.17735101,0,0,0.1773058,21.711756,441.11034)"
         d="m 185,114.09448 c 0,5.52285 -4.47715,10 -10,10 -5.52285,0 -10,-4.47715 -10,-10 0,-5.52285 4.47715,-10 10,-10 5.52285,0 10,4.47715 10,10 z"
         sodipodi:ry="10"
         sodipodi:rx="10"
         sodipodi:cy="114.09448"
         sodipodi:cx="175"
         id="path3136"
         style="fill:#ff0000;stroke:#000000;stroke-width:4.99540329;stroke-miterlimit:4;stroke-opacity:1;stroke-dasharray:none"
         sodipodi:type="arc" />
      <path
         transform="matrix(0.17735101,0,0,0.1773058,21.711756,450.11034)"
         d="m 185,114.09448 c 0,5.52285 -4.47715,10 -10,10 -5.52285,0 -10,-4.47715 -10,-10 0,-5.52285 4.47715,-10 10,-10 5.52285,0 10,4.47715 10,10 z"
         sodipodi:ry="10"
         sodipodi:rx="10"
         sodipodi:cy="114.09448"
         sodipodi:cx="175"
         id="path3138"
         style="fill:#ff0000;stroke:#000000;stroke-width:4.99540329;stroke-miterlimit:4;stroke-opacity:1;stroke-dasharray:none"
         sodipodi:type="arc" />
      <path
         sodipodi:type="arc"
         style="fill:#ff0000;stroke:#000000;stroke-width:4.99540329;stroke-miterlimit:4;stroke-opacity:1;stroke-dasharray:none"
         id="path3140"
         sodipodi:cx="175"
         sodipodi:cy="114.09448"
         sodipodi:rx="10"
         sodipodi:ry="10"
         d="m 185,114.09448 c 0,5.52285 -4.47715,10 -10,10 -5.52285,0 -10,-4.47715 -10,-10 0,-5.52285 4.47715,-10 10,-10 5.52285,0 10,4.47715 10,10 z"
         transform="matrix(0.17735101,0,0,0.1773058,21.711756,459.11034)" />
      <path
         transform="matrix(0.17735101,0,0,0.1773058,21.711756,468.11034)"
         d="m 185,114.09448 c 0,5.52285 -4.47715,10 -10,10 -5.52285,0 -10,-4.47715 -10,-10 0,-5.52285 4.47715,-10 10,-10 5.52285,0 10,4.47715 10,10 z"
         sodipodi:ry="10"
         sodipodi:rx="10"
         sodipodi:cy="114.09448"
         sodipodi:cx="175"
         id="path3142"
         style="fill:#ff0000;stroke:#000000;stroke-width:4.99540329;stroke-miterlimit:4;stroke-opacity:1;stroke-dasharray:none"
         sodipodi:type="arc" />
      <path
         sodipodi:type="arc"
         style="fill:#ff0000;stroke:#000000;stroke-width:4.99540329;stroke-miterlimit:4;stroke-opacity:1;stroke-dasharray:none"
         id="path3144"
         sodipodi:cx="175"
         sodipodi:cy="114.09448"
         sodipodi:rx="10"
         sodipodi:ry="10"
         d="m 185,114.09448 c 0,5.52285 -4.47715,10 -10,10 -5.52285,0 -10,-4.47715 -10,-10 0,-5.52285 4.47715,-10 10,-10 5.52285,0 10,4.47715 10,10 z"
         transform="matrix(0.17735101,0,0,0.1773058,21.711756,477.11034)" />
      <path
         sodipodi:type="arc"
         style="fill:#ff0000;stroke:#000000;stroke-width:4.99540329;stroke-miterlimit:4;stroke-opacity:1;stroke-dasharray:none"
         id="path3146"
         sodipodi:cx="175"
         sodipodi:cy="114.09448"
         sodipodi:rx="10"
         sodipodi:ry="10"
         d="m 185,114.09448 c 0,5.52285 -4.47715,10 -10,10 -5.52285,0 -10,-4.47715 -10,-10 0,-5.52285 4.47715,-10 10,-10 5.52285,0 10,4.47715 10,10 z"
         transform="matrix(0.17735101,0,0,0.1773058,21.711756,486.11034)" />
      <path
         transform="matrix(0.17735101,0,0,0.1773058,21.711756,495.11034)"
         d="m 185,114.09448 c 0,5.52285 -4.47715,10 -10,10 -5.52285,0 -10,-4.47715 -10,-10 0,-5.52285 4.47715,-10 10,-10 5.52285,0 10,4.47715 10,10 z"
         sodipodi:ry="10"
         sodipodi:rx="10"
         sodipodi:cy="114.09448"
         sodipodi:cx="175"
         id="path3148"
         style="fill:#ff0000;stroke:#000000;stroke-width:4.99540329;stroke-miterlimit:4;stroke-opacity:1;stroke-dasharray:none"
         sodipodi:type="arc" />
    </g>
    <rect
       style="opacity:0.4;fill:#ff00ff;stroke:#000000;stroke-width:0.88582677;stroke-miterlimit:4;stroke-opacity:1;stroke-dasharray:none"
       id="rect3154"
       width="103.54064"
       height="160.61426"
       x="28.953037"
       y="380.79602" />
    <rect
       style="opacity:0.4;fill:#ff0000;stroke:#000000;stroke-width:0.88582677;stroke-miterlimit:4;stroke-opacity:1;stroke-dasharray:none"
       id="rect3184"
       width="67.581573"
       height="122.05077"
       x="46.932571"
       y="401.99274" />
  </g>
</svg>
